#!OML:ASF G:\JayActor3\Patient Classification 1\Patient 1\Session 2\male.ASF
:FULLY-SPECIFIED
:DEGREES
2855
root 48.7226 16.7271 -6.82128 3253.48 -69.2664 -372.889
lowerback -1.6404 -0.30901 -4.118
upperback 5.43481 -0.16279 -2.50175
thorax 6.58678 -0.263238 -0.32204
lowerneck -9.53344 -2.62342 -2.91898
upperneck 15.4087 -5.28041 11.5106
head 6.6497 -1.91058 3.71812
rclavicle -4.29375e-014 -3.18055e-015
rhumerus -32.6127 -11.1707 -86.1757
rradius 27.5176
rwrist -3.70089
rhand -20.0514 5.99932
rfingers 7.12502
rthumb 6.29016 -23.8873
lclavicle -4.29375e-014 -3.18055e-015
lhumerus -10.9181 -0.509903 82.0771
lradius 21.3369
lwrist 5.08116
lhand -19.071 16.3611
lfingers 7.12502
lthumb 7.2366 46.2173
rfemur -16.9113 -6.32657 27.1168
rtibia 36.4232
rfoot -27.2828 -17.4081
rtoes 22.7581
lfemur -7.71567 10.1435 -17.7542
ltibia 23.8658
lfoot -23.7654 17.5603
ltoes 3.70897
2856
root 48.7261 16.7249 -6.82533 3253.66 -69.7914 -373.074
lowerback -1.68047 -0.328551 -4.03122
upperback 5.4373 -0.192525 -2.46547
thorax 6.61245 -0.274683 -0.335165
lowerneck -9.49573 -2.67305 -2.9446
upperneck 15.4054 -5.35495 11.5509
head 6.64961 -1.94753 3.72892
rclavicle -5.36719e-014 3.97569e-014
rhumerus -32.4511 -10.827 -86.3582
rradius 27.8066
rwrist -3.969
rhand -20.1212 6.06704
rfingers 7.12502
rthumb 6.2228 -23.8216
lclavicle -5.36719e-014 3.97569e-014
lhumerus -11.1475 -0.418025 82.4745
lradius 21.2706
lwrist 4.94524
lhand -18.9124 16.2049
lfingers 7.12502
lthumb 7.38971 46.0559
rfemur -16.7567 -6.20567 27.0589
rtibia 36.1238
rfoot -27.003 -17.1297
rtoes 22.8612
lfemur -7.66833 10.2125 -17.821
ltibia 23.8874
lfoot -23.969 17.9736
ltoes 3.82173
2857
root 48.7292 16.7229 -6.82924 3253.82 -70.3057 -373.247
lowerback -1.72016 -0.349955 -3.94826
upperback 5.44485 -0.224743 -2.42571
thorax 6.64339 -0.287776 -0.342846
lowerneck -9.46847 -2.72012 -2.97693
upperneck 15.4074 -5.42484 11.5887
head 6.65283 -1.9822 3.74047
rclavicle 6.36111e-014 4.77083e-015
rhumerus -32.2712 -10.4834 -86.528
rradius 28.0798
rwrist -4.21448
rhand -20.1809 6.12066
rfingers 7.12502
rthumb 6.16516 -23.7696
lclavicle 6.36111e-014 4.77083e-015
lhumerus -11.3877 -0.346728 82.8743
lradius 21.2626
lwrist 4.82
lhand -18.7701 16.0837
lfingers 7.12502
lthumb 7.52707 45.9297
rfemur -16.614 -6.08483 26.99
rtibia 35.8503
rfoot -26.7299 -16.8284
rtoes 22.9766
lfemur -7.62041 10.2784 -17.8937
ltibia 23.904
lfoot -24.1415 18.3807
ltoes 3.98565
2858
root 48.7319 16.7213 -6.83301 3253.97 -70.8057 -373.399
lowerback -1.75913 -0.373285 -3.86798
upperback 5.45571 -0.259503 -2.38585
thorax 6.67751 -0.302343 -0.349218
lowerneck -9.44387 -2.76466 -3.01148
upperneck 15.411 -5.49171 11.63
head 6.65697 -2.01516 3.75379
rclavicle -9.93923e-015 -7.95139e-015
rhumerus -32.0778 -10.1472 -86.6863
rradius 28.3374
rwrist -4.43133
rhand -20.2293 6.16118
rfingers 7.12502
rthumb 6.11846 -23.7305
lclavicle -9.93923e-015 -7.95139e-015
lhumerus -11.6444 -0.316953 83.2749
lradius 21.3185
lwrist 4.70377
lhand -18.6632 16.0386
lfingers 7.12502
lthumb 7.63026 45.8809
rfemur -16.4848 -5.97331 26.912
rtibia 35.6036
rfoot -26.4619 -16.5167
rtoes 23.0717
lfemur -7.57049 10.3322 -17.9741
ltibia 23.9119
lfoot -24.2878 18.7897
ltoes 4.17079
2859
root 48.7344 16.7202 -6.83662 3254.11 -71.2916 -373.543
lowerback -1.79754 -0.397075 -3.78801
upperback 5.46992 -0.295044 -2.34386
thorax 6.7149 -0.317432 -0.353358
lowerneck -9.42338 -2.8127 -3.04826
upperneck 15.4222 -5.56393 11.6709
head 6.66482 -2.05047 3.76694
rclavicle 9.14409e-015 -4.77083e-015
rhumerus -31.879 -9.82336 -86.83
rradius 28.5851
rwrist -4.6155
rhand -20.2636 6.18242
rfingers 7.12502
rthumb 6.0853 -23.7102
lclavicle 9.14409e-015 -4.77083e-015
lhumerus -11.9189 -0.334424 83.6771
lradius 21.4399
lwrist 4.60697
lhand -18.5769 16.0421
lfingers 7.12502
lthumb 7.71355 45.8814
rfemur -16.3714 -5.86988 26.8307
rtibia 35.3859
rfoot -26.1966 -16.2049
rtoes 23.1353
lfemur -7.51561 10.3634 -18.0599
ltibia 23.9073
lfoot -24.4253 19.2058
ltoes 4.36968
2860
root 48.7365 16.7198 -6.84023 3254.24 -71.7608 -373.677
lowerback -1.83106 -0.422724 -3.71014
upperback 5.48856 -0.333401 -2.30001
thorax 6.75428 -0.334154 -0.354671
lowerneck -9.40862 -2.86157 -3.08296
upperneck 15.4348 -5.63745 11.71
head 6.67418 -2.08616 3.779
rclavicle 1.55052e-014 2.06736e-014
rhumerus -31.676 -9.50676 -86.9638
rradius 28.8228
rwrist -4.77889
rhand -20.2953 6.19959
rfingers 7.12502
rthumb 6.0547 -23.6939
lclavicle 1.55052e-014 2.06736e-014
lhumerus -12.2121 -0.398313 84.0777
lradius 21.6239
lwrist 4.54454
lhand -18.5143 16.0564
lfingers 7.12502
lthumb 7.774 45.8934
rfemur -16.2712 -5.77267 26.7491
rtibia 35.1981
rfoot -25.9357 -15.9097
rtoes 23.1529
lfemur -7.45008 10.3766 -18.1481
ltibia 23.8871
lfoot -24.5594 19.6213
ltoes 4.5761
2861
root 48.7382 16.7202 -6.84384 3254.36 -72.2138 -373.806
lowerback -1.86059 -0.446949 -3.63276
upperback 5.51002 -0.370203 -2.25484
thorax 6.79431 -0.350206 -0.354259
lowerneck -9.38502 -2.9122 -3.10747
upperneck 15.4409 -5.71333 11.7435
head 6.67975 -2.12331 3.78725
rclavicle 1.94809e-014 6.36111e-015
rhumerus -31.4716 -9.19966 -87.0892
rradius 29.0464
rwrist -4.93361
rhand -20.3383 6.21665
rfingers 7.12502
rthumb 6.01322 -23.678
lclavicle 1.94809e-014 6.36111e-015
lhumerus -12.5299 -0.524304 84.4795
lradius 21.8785
lwrist 4.54416
lhand -18.4794 16.0957
lfingers 7.12502
lthumb 7.80766 45.9316
rfemur -16.1858 -5.67557 26.6703
rtibia 35.0408
rfoot -25.6868 -15.6356
rtoes 23.144
lfemur -7.37491 10.3682 -18.2382
ltibia 23.8506
lfoot -24.69 20.0489
ltoes 4.75066
2862
root 48.7396 16.7212 -6.84764 3254.49 -72.6508 -373.945
lowerback -1.88369 -0.469952 -3.55674
upperback 5.5359 -0.405935 -2.20532
thorax 6.83533 -0.365992 -0.348498
lowerneck -9.35968 -2.96409 -3.12563
upperneck 15.4414 -5.79084 11.7744
head 6.6832 -2.16129 3.79339
rclavicle 2.06736e-014 2.22639e-014
rhumerus -31.2597 -8.89907 -87.205
rradius 29.2501
rwrist -5.07658
rhand -20.3874 6.24275
rfingers 7.12502
rthumb 5.9658 -23.6533
lclavicle 2.06736e-014 2.22639e-014
lhumerus -12.8715 -0.711996 84.8833
lradius 22.2051
lwrist 4.63576
lhand -18.4722 16.1498
lfingers 7.12502
lthumb 7.81457 45.9854
rfemur -16.1135 -5.57347 26.6012
rtibia 34.9128
rfoot -25.4491 -15.3938
rtoes 23.1031
lfemur -7.28892 10.3423 -18.324
ltibia 23.799
lfoot -24.8195 20.4858
ltoes 4.8992
2863
root 48.7408 16.7227 -6.85167 3254.63 -73.075 -374.102
lowerback -1.90405 -0.491745 -3.48381
upperback 5.56706 -0.440389 -2.14961
thorax 6.88048 -0.381596 -0.334547
lowerneck -9.33518 -3.01888 -3.13739
upperneck 15.4396 -5.87203 11.7997
head 6.68607 -2.20108 3.79623
rclavicle 1.55052e-014 2.38542e-014
rhumerus -31.033 -8.60019 -87.3117
rradius 29.4278
rwrist -5.20666
rhand -20.4431 6.27379
rfingers 7.12502
rthumb 5.912 -23.6237
lclavicle 1.55052e-014 2.38542e-014
lhumerus -13.2289 -0.912151 85.286
lradius 22.5883
lwrist 4.79314
lhand -18.4712 16.1735
lfingers 7.12502
lthumb 7.81559 46.009
rfemur -16.056 -5.46235 26.5457
rtibia 34.8115
rfoot -25.2281 -15.185
rtoes 23.0456
lfemur -7.1979 10.3039 -18.4031
ltibia 23.7366
lfoot -24.9471 20.9319
ltoes 5.02356
2864
root 48.7418 16.7245 -6.85591 3254.79 -73.4901 -374.274
lowerback -1.92034 -0.507901 -3.41091
upperback 5.59817 -0.46772 -2.09251
thorax 6.92308 -0.393687 -0.318527
lowerneck -9.3 -3.07598 -3.14241
upperneck 15.4338 -5.95824 11.8302
head 6.68621 -2.24312 3.79923
rclavicle -4.45278e-014 7.95139e-015
rhumerus -30.7998 -8.31469 -87.4088
rradius 29.5759
rwrist -5.31697
rhand -20.5026 6.30785
rfingers 7.12502
rthumb 5.85463 -23.5913
lclavicle -4.45278e-014 7.95139e-015
lhumerus -13.6099 -1.14274 85.6881
lradius 23.0318
lwrist 5.02011
lhand -18.4822 16.214
lfingers 7.12502
lthumb 7.80496 46.0499
rfemur -16.0125 -5.33846 26.5016
rtibia 34.7324
rfoot -25.0238 -15.0114
rtoes 22.9734
lfemur -7.10666 10.255 -18.4788
ltibia 23.6697
lfoot -25.075 21.3885
ltoes 5.10977
2865
root 48.7426 16.7265 -6.86043 3254.96 -73.8964 -374.465
lowerback -1.93457 -0.524005 -3.34464
upperback 5.63127 -0.495136 -2.02929
thorax 6.96678 -0.406384 -0.292445
lowerneck -9.2683 -3.13221 -3.14367
upperneck 15.4326 -6.04387 11.8577
head 6.68822 -2.28462 3.80067
rclavicle -4.77083e-015 6.36111e-015
rhumerus -30.5541 -8.02661 -87.4961
rradius 29.6942
rwrist -5.40712
rhand -20.5608 6.34083
rfingers 7.12502
rthumb 5.79837 -23.5598
lclavicle -4.77083e-015 6.36111e-015
lhumerus -14.0013 -1.34808 86.084
lradius 23.5128
lwrist 5.27771
lhand -18.4829 16.2128
lfingers 7.12502
lthumb 7.80425 46.0488
rfemur -15.9815 -5.19998 26.4703
rtibia 34.6705
rfoot -24.8351 -14.874
rtoes 22.8775
lfemur -7.01985 10.2079 -18.5487
ltibia 23.6049
lfoot -25.2149 21.8325
ltoes 5.17652
2866
root 48.7431 16.7284 -6.86527 3255.15 -74.2971 -374.664
lowerback -1.94715 -0.536797 -3.28383
upperback 5.6627 -0.518065 -1.96599
thorax 7.00775 -0.417116 -0.262827
lowerneck -9.23424 -3.18805 -3.13557
upperneck 15.4318 -6.13135 11.8883
head 6.69 -2.32641 3.80141
rclavicle -5.96354e-015 -1.27222e-014
rhumerus -30.3011 -7.75433 -87.5743
rradius 29.7829
rwrist -5.46945
rhand -20.6084 6.36769
rfingers 7.12502
rthumb 5.75239 -23.5342
lclavicle -5.96354e-015 -1.27222e-014
lhumerus -14.4052 -1.54812 86.4688
lradius 24.0273
lwrist 5.55984
lhand -18.4679 16.2275
lfingers 7.12502
lthumb 7.81874 46.0629
rfemur -15.9618 -5.04327 26.4468
rtibia 34.6204
rfoot -24.6631 -14.7721
rtoes 22.7585
lfemur -6.94345 10.1685 -18.6166
ltibia 23.5492
lfoot -25.3709 22.256
ltoes 5.21389
2867
root 48.7435 16.7299 -6.87036 3255.34 -74.6899 -374.857
lowerback -1.96071 -0.551033 -3.23673
upperback 5.69377 -0.542467 -1.89827
thorax 7.04922 -0.429453 -0.221067
lowerneck -9.19557 -3.23734 -3.13046
upperneck 15.4223 -6.20938 11.9253
head 6.68775 -2.36378 3.80557
rclavicle 7.15625e-015 -3.97569e-014
rhumerus -30.0374 -7.48486 -87.6391
rradius 29.8421
rwrist -5.50827
rhand -20.6406 6.38473
rfingers 7.12502
rthumb 5.7213 -23.518
lclavicle 7.15625e-015 -3.97569e-014
lhumerus -14.8157 -1.71334 86.8441
lradius 24.5647
lwrist 5.84762
lhand -18.4311 16.2411
lfingers 7.12502
lthumb 7.85422 46.0752
rfemur -15.9506 -4.86926 26.4255
rtibia 34.5791
rfoot -24.5093 -14.6982
rtoes 22.6223
lfemur -6.8798 10.1397 -18.6863
ltibia 23.5069
lfoot -25.5488 22.6465
ltoes 5.20277
2868
root 48.7436 16.7311 -6.87569 3255.52 -75.0723 -375.039
lowerback -1.97001 -0.564924 -3.197
upperback 5.72035 -0.566325 -1.83126
thorax 7.08355 -0.441783 -0.175752
lowerneck -9.14165 -3.28223 -3.12345
upperneck 15.4012 -6.28181 11.97
head 6.67881 -2.39877 3.81254
rclavicle -2.56432e-014 -1.74931e-014
rhumerus -29.7752 -7.23736 -87.6915
rradius 29.8764
rwrist -5.52046
rhand -20.655 6.39779
rfingers 7.12502
rthumb 5.70748 -23.5053
lclavicle -2.56432e-014 -1.74931e-014
lhumerus -15.2349 -1.86269 87.2047
lradius 25.1153
lwrist 6.15024
lhand -18.3754 16.2523
lfingers 7.12502
lthumb 7.90805 46.0844
rfemur -15.9454 -4.68762 26.4041
rtibia 34.5452
rfoot -24.3659 -14.6439
rtoes 22.4558
lfemur -6.82737 10.1318 -18.756
ltibia 23.4795
lfoot -25.7569 22.9729
ltoes 5.16915
2869
root 48.7433 16.7319 -6.88119 3255.67 -75.4446 -375.189
lowerback -1.97851 -0.581436 -3.1715
upperback 5.74544 -0.593094 -1.7635
thorax 7.11619 -0.456343 -0.121919
lowerneck -9.08114 -3.32241 -3.12054
upperneck 15.3703 -6.34691 12.0207
head 6.66535 -2.43059 3.82285
rclavicle -2.90226e-014 -2.06736e-014
rhumerus -29.5087 -6.99892 -87.7324
rradius 29.8876
rwrist -5.51288
rhand -20.6581 6.40968
rfingers 7.12502
rthumb 5.70445 -23.4935
lclavicle -2.90226e-014 -2.06736e-014
lhumerus -15.6564 -1.98498 87.5518
lradius 25.6759
lwrist 6.46066
lhand -18.3165 16.2526
lfingers 7.12502
lthumb 7.96487 46.0825
rfemur -15.9468 -4.50544 26.3746
rtibia 34.5204
rfoot -24.2343 -14.5923
rtoes 22.288
lfemur -6.78606 10.1501 -18.8311
ltibia 23.4652
lfoot -25.9821 23.2318
ltoes 5.0918
